<svg xmlns="http://www.w3.org/2000/svg" width="32.4" height="32.405" viewBox="0 0 32.4 32.405"><defs><style>.a{fill:#2258bf;stroke:#2258bf;stroke-width:0.4px;}</style></defs><g transform="translate(-0.8 -0.794)"><path class="a" d="M28.354,18.574V13.9a2.584,2.584,0,0,0-2.581-2.581H24.3a7.68,7.68,0,0,0,.277-1.032h4.809a2.584,2.584,0,0,0,2.581-2.581V6.066a1.548,1.548,0,1,0-1.032,0V7.709a1.55,1.55,0,0,1-1.548,1.548H24.712c.011-.172.029-.342.029-.516s-.016-.344-.027-.516H26.29a2.584,2.584,0,0,0,2.581-2.581V4a1.548,1.548,0,1,0-1.032,0V5.645A1.55,1.55,0,0,1,26.29,7.193H24.581a7.74,7.74,0,0,0-15.169,0H7.71A1.55,1.55,0,0,1,6.161,5.645V4A1.548,1.548,0,1,0,5.129,4V5.645A2.584,2.584,0,0,0,7.71,8.225H9.277a7.828,7.828,0,0,0,0,1.032H4.613A1.55,1.55,0,0,1,3.064,7.709V6.066a1.548,1.548,0,1,0-1.032,0V7.709A2.584,2.584,0,0,0,4.613,10.29h4.8A7.678,7.678,0,0,0,9.7,11.322H8.226A2.584,2.584,0,0,0,5.645,13.9v4.671a5.161,5.161,0,1,0,1.032,0V13.9a1.55,1.55,0,0,1,1.548-1.548h1.93a7.714,7.714,0,0,0,1.691,2.157,1.544,1.544,0,0,0,.508,3h.557a3.616,3.616,0,0,0,3.572,3.1V22.7a5.161,5.161,0,1,0,1.032,0V20.612a3.616,3.616,0,0,0,3.572-3.1h.557a1.544,1.544,0,0,0,.495-3.008,7.712,7.712,0,0,0,1.7-2.153h1.934A1.55,1.55,0,0,1,27.322,13.9v4.671a5.161,5.161,0,1,0,1.032,0ZM31.451,4.1a.516.516,0,1,1-.516.516A.517.517,0,0,1,31.451,4.1Zm-3.1-2.064a.516.516,0,1,1-.516.516A.517.517,0,0,1,28.354,2.032Zm-22.709,0a.516.516,0,1,1-.516.516A.517.517,0,0,1,5.645,2.032ZM2.548,4.1a.516.516,0,1,1-.516.516A.517.517,0,0,1,2.548,4.1Zm1.14,22.911a3.1,3.1,0,0,1,4.947,0,4.1,4.1,0,0,1-4.947,0Zm.925-3.815a1.548,1.548,0,1,1,1.548,1.548A1.55,1.55,0,0,1,4.613,23.193Zm5.677.516a4.105,4.105,0,0,1-.913,2.583,4.127,4.127,0,0,0-1.513-1.176,2.581,2.581,0,1,0-3.407,0,4.133,4.133,0,0,0-1.513,1.176,4.127,4.127,0,1,1,7.345-2.583Zm4.236,7.428a3.1,3.1,0,0,1,4.947,0,4.1,4.1,0,0,1-4.947,0Zm.925-3.815A1.548,1.548,0,1,1,17,28.87,1.55,1.55,0,0,1,15.451,27.322Zm5.677.516a4.105,4.105,0,0,1-.913,2.583A4.127,4.127,0,0,0,18.7,29.245a2.581,2.581,0,1,0-3.407,0,4.133,4.133,0,0,0-1.513,1.176,4.127,4.127,0,1,1,7.345-2.583ZM10.338,7.932a6.727,6.727,0,0,1,5.892-5.857,6.7,6.7,0,0,1,6.056,10.786A5.71,5.71,0,0,0,18.941,9.6a3.1,3.1,0,1,0-3.882,0,5.713,5.713,0,0,0-3.344,3.259,6.69,6.69,0,0,1-1.377-4.929Zm8.648,6.487L18.33,10.49a4.659,4.659,0,0,1,3.149,3.226c-.133.119-.263.239-.406.349a2.2,2.2,0,0,0-.352.354H18.985Zm-5.713,0a2.779,2.779,0,0,0-.406-.4c-.122-.1-.23-.2-.345-.308a4.661,4.661,0,0,1,3.148-3.222l-.655,3.929Zm1.663-7.226A2.064,2.064,0,1,1,17,9.258,2.067,2.067,0,0,1,14.935,7.193ZM16.747,10.3c.084,0,.168-.011.253-.011s.169.007.253.011l.686,4.118H16.06Zm.769,9.279H16.484a2.585,2.585,0,0,1-2.528-2.064h6.089A2.585,2.585,0,0,1,17.516,19.58Zm4.129-3.1h-9.29a.516.516,0,1,1,0-1.032h9.29a.516.516,0,0,1,0,1.032Zm3.72,10.524a3.1,3.1,0,0,1,4.947,0,4.1,4.1,0,0,1-4.947,0Zm.925-3.815a1.548,1.548,0,1,1,1.548,1.548A1.55,1.55,0,0,1,26.29,23.193Zm4.765,3.1a4.127,4.127,0,0,0-1.513-1.176,2.581,2.581,0,1,0-3.407,0,4.133,4.133,0,0,0-1.513,1.176,4.129,4.129,0,1,1,6.433,0Z" transform="translate(0 0)"/><path class="a" d="M40.588,17.849l.985.31a5.64,5.64,0,0,0,.23-1.11l-1.027-.107a4.645,4.645,0,0,1-.188.907Z" transform="translate(-19.156 -7.714)"/><path class="a" d="M40.341,9.892a5.688,5.688,0,0,0-.636-.938l-.792.662a4.657,4.657,0,0,1,.521.767Z" transform="translate(-18.345 -3.849)"/><path class="a" d="M40.791,14.009l1.028-.1A5.664,5.664,0,0,0,41.6,12.8l-.988.3A4.587,4.587,0,0,1,40.791,14.009Z" transform="translate(-19.167 -5.71)"/></g></svg>