<svg xmlns="http://www.w3.org/2000/svg" width="15.669" height="12.726" viewBox="0 0 15.669 12.726"><defs><style>.a{fill:#fff;}</style></defs><path class="a" d="M14.058,6.552c.01.139.01.278.01.418a9.074,9.074,0,0,1-9.137,9.137A9.075,9.075,0,0,1,0,14.665a6.644,6.644,0,0,0,.775.04,6.431,6.431,0,0,0,3.987-1.372,3.217,3.217,0,0,1-3-2.227,4.05,4.05,0,0,0,.606.05,3.4,3.4,0,0,0,.845-.109A3.212,3.212,0,0,1,.636,7.894v-.04a3.234,3.234,0,0,0,1.452.408,3.216,3.216,0,0,1-.994-4.3,9.128,9.128,0,0,0,6.621,3.36,3.625,3.625,0,0,1-.08-.736,3.214,3.214,0,0,1,5.558-2.2,6.322,6.322,0,0,0,2.038-.775,3.2,3.2,0,0,1-1.412,1.77,6.438,6.438,0,0,0,1.849-.5,6.9,6.9,0,0,1-1.611,1.66Z" transform="translate(0 -3.381)"/></svg>