<svg xmlns="http://www.w3.org/2000/svg" width="12.339" height="10.021" viewBox="0 0 12.339 10.021"><defs><style>.a{fill:#544cf9;}</style></defs><path class="a" d="M11.07,5.878c.008.11.008.219.008.329A7.146,7.146,0,0,1,3.883,13.4,7.146,7.146,0,0,1,0,12.267a5.231,5.231,0,0,0,.611.031,5.064,5.064,0,0,0,3.139-1.08A2.533,2.533,0,0,1,1.386,9.464a3.189,3.189,0,0,0,.478.039,2.675,2.675,0,0,0,.665-.086A2.529,2.529,0,0,1,.5,6.935V6.9a2.547,2.547,0,0,0,1.143.321A2.533,2.533,0,0,1,.861,3.843,7.188,7.188,0,0,0,6.075,6.489a2.855,2.855,0,0,1-.063-.579,2.531,2.531,0,0,1,4.376-1.73,4.979,4.979,0,0,0,1.6-.611,2.522,2.522,0,0,1-1.112,1.394,5.069,5.069,0,0,0,1.456-.391A5.436,5.436,0,0,1,11.07,5.878Z" transform="translate(0 -3.381)"/></svg>