<svg xmlns="http://www.w3.org/2000/svg" width="6.172" height="10.388" viewBox="0 0 6.172 10.388"><defs><style>.a{fill:#a9a9a9;}</style></defs><path class="a" d="M6.681,9.745a2.906,2.906,0,0,1-1.976.643A2.719,2.719,0,0,1,1.722,7.535V4.614H.758a.2.2,0,0,1-.2-.2V3.031a.343.343,0,0,1,.229-.325A2.58,2.58,0,0,0,2.5.331C2.511.108,2.627,0,2.822,0H4.26a.2.2,0,0,1,.2.2V2.54H6.147a.2.2,0,0,1,.2.2V4.4a.2.2,0,0,1-.2.2H4.455V7.3c0,.694.481,1.087,1.38.726a.428.428,0,0,1,.258-.045.219.219,0,0,1,.15.16l.446,1.3C6.725,9.552,6.756,9.666,6.681,9.745Z" transform="translate(-0.555)"/></svg>