<svg xmlns="http://www.w3.org/2000/svg" width="7.837" height="13.192" viewBox="0 0 7.837 13.192"><defs><style>.a{fill:#fff;}</style></defs><path class="a" d="M8.334,12.375a3.69,3.69,0,0,1-2.51.817A3.453,3.453,0,0,1,2.037,9.569V5.859H.813A.258.258,0,0,1,.555,5.6V3.849a.436.436,0,0,1,.291-.412A3.277,3.277,0,0,0,3.019.42C3.039.137,3.186,0,3.433,0H5.26a.258.258,0,0,1,.258.258V3.226H7.656a.256.256,0,0,1,.258.255v2.1a.258.258,0,0,1-.258.258H5.507V9.275c0,.881.611,1.381,1.752.922a.543.543,0,0,1,.327-.057.278.278,0,0,1,.191.2L8.344,12C8.391,12.13,8.429,12.274,8.334,12.375Z" transform="translate(-0.555 0)"/></svg>